#!OML:ASF H:\Terrain\Patient Classification 1\Walking\liu\liu.ASF
:FULLY-SPECIFIED
:DEGREES
81
root 7.86111 15.7482 -15.9887 6.06613 3.53347 3.89435
lowerback -5.24688 -2.05501 -6.69854
upperback -0.718377 -2.37639 0.854182
thorax 2.50938 -1.25305 4.46759
lowerneck -22.3505 -5.06592 -13.5241
upperneck 21.2487 -6.51453 15.3562
head 11.6455 -2.20536 6.9864
rclavicle 8.98258e-015 -1.15295e-014
rhumerus -53.498 4.87802 -82.3642
rradius 24.4034
rwrist -8.88637
rhand -27.9495 -22.7087
rfingers 7.12502
rthumb -1.33718 -52.6843
lclavicle 8.98258e-015 -1.15295e-014
lhumerus -17.2377 -18.3552 89.1358
lradius 47.3283
lwrist 13.9145
lhand -16.6669 -29.1025
lfingers 7.12502
lthumb 9.55675 0.660808
rfemur -44.5621 3.37806 16.6668
rtibia 40.4578
rfoot -6.5169 -0.125171
rtoes -20.1213
lfemur 27.5973 6.84322 -23.5424
ltibia -8.26944e-014
lfoot 1.07126 2.0098
ltoes -16.7774
82
root 7.85153 15.7331 -15.7297 5.50579 3.81728 4.20107
lowerback -4.81998 -2.27258 -7.06751
upperback -0.550316 -2.67238 0.826184
thorax 2.4984 -1.40858 4.63222
lowerneck -22.5178 -4.96827 -13.1812
upperneck 21.4356 -6.35709 14.8508
head 11.6849 -2.15803 6.75975
rclavicle 1.29086e-014 -7.15625e-015
rhumerus -52.5062 4.46543 -81.8514
rradius 23.4144
rwrist -7.73784
rhand -27.7122 -23.28
rfingers 7.12502
rthumb -1.10795 -53.2569
lclavicle 1.29086e-014 -7.15625e-015
lhumerus -17.9102 -18.024 89.2878
lradius 47.07
lwrist 13.1162
lhand -17.6117 -28.7789
lfingers 7.12502
lthumb 8.64508 1.02408
rfemur -43.9338 2.50364 16.8198
rtibia 42.1711
rfoot -6.55314 0.872201
rtoes -19.044
lfemur 28.8798 6.96176 -23.4914
ltibia 3.49861e-014
lfoot 4.53447 3.0565
ltoes -18.7558
83
root 7.85386 15.6972 -15.4437 4.38342 3.90336 5.49807
lowerback -4.11998 -2.3841 -8.42529
upperback -0.210452 -2.79361 0.554501
thorax 2.52818 -1.49351 5.12016
lowerneck -22.3967 -4.85766 -13.2165
upperneck 21.3919 -6.11944 14.5784
head 11.5924 -2.09016 6.69377
rclavicle 3.78933e-015 1.59028e-015
rhumerus -51.6413 4.12566 -81.199
rradius 22.4228
rwrist -6.56526
rhand -28.1741 -22.3094
rfingers 7.12502
rthumb -1.5541 -52.2835
lclavicle 3.78933e-015 1.59028e-015
lhumerus -18.7738 -17.3912 89.6277
lradius 46.9035
lwrist 13.066
lhand -17.7268 -28.7895
lfingers 7.12502
lthumb 8.53395 1.01804
rfemur -42.4805 1.14128 15.9761
rtibia 43.7697
rfoot -6.80621 2.77961
rtoes -18.2718
lfemur 25.3587 7.5156 -24.3703
ltibia 10.8552
lfoot 2.65648 3.05076
ltoes -18.9219
84
root 7.82172 15.7217 -15.2317 4.76011 3.57175 3.39931
lowerback -4.33896 -2.29673 -6.68532
upperback -0.427206 -2.7686 1.30539
thorax 2.37527 -1.45567 4.92465
lowerneck -22.7425 -4.70891 -12.8954
upperneck 21.5433 -5.86635 14.1174
head 11.6434 -1.99108 6.50629
rclavicle 2.88362e-014 5.1684e-015
rhumerus -50.7652 4.04841 -80.919
rradius 21.9584
rwrist -6.17786
rhand -28.9473 -21.8577
rfingers 7.12502
rthumb -2.30086 -51.825
lclavicle 2.88362e-014 5.1684e-015
lhumerus -19.4585 -16.5535 89.8529
lradius 46.5653
lwrist 13.1665
lhand -17.6768 -29.1731
lfingers 7.12502
lthumb 8.5822 0.63247
rfemur -42.5535 2.08909 18.4971
rtibia 44.5435
rfoot -7.45842 2.73674
rtoes -16.7045
lfemur 21.9621 8.39845 -21.6471
ltibia 17.3089
lfoot 3.44708 3.57546
ltoes -17.8096
85
root 7.79907 15.7478 -15.0021 4.86458 3.73925 2.27484
lowerback -4.44554 -2.41062 -5.74109
upperback -0.512874 -2.97078 1.68616
thorax 2.34573 -1.54657 4.77149
lowerneck -23.0928 -4.50621 -12.3402
upperneck 21.8613 -5.63831 13.6497
head 11.7577 -1.88516 6.28011
rclavicle 2.01021e-014 -1.35174e-014
rhumerus -49.7763 3.53802 -80.4041
rradius 21.7285
rwrist -5.13913
rhand -27.2881 -23.7423
rfingers 7.12502
rthumb -0.698356 -53.7209
lclavicle 2.01021e-014 -1.35174e-014
lhumerus -20.1579 -15.9184 89.9426
lradius 46.002
lwrist 13.0767
lhand -17.2726 -29.3945
lfingers 7.12502
lthumb 8.97233 0.394721
rfemur -42.0272 2.21259 19.9947
rtibia 45.0752
rfoot -8.23602 2.77847
rtoes -14.6684
lfemur 19.2887 8.79697 -19.9981
ltibia 22.9122
lfoot 4.54375 4.20086
ltoes -17.5856
86
root 7.78179 15.785 -14.7621 4.67725 4.04867 1.53278
lowerback -4.36363 -2.53045 -5.05743
upperback -0.50293 -3.17328 1.90424
thorax 2.31096 -1.6418 4.60043
lowerneck -23.0493 -4.37196 -12.3437
upperneck 21.9476 -5.52645 13.8901
head 11.7735 -1.80751 6.4008
rclavicle -2.168e-014 -2.38542e-014
rhumerus -48.773 2.75504 -79.8506
rradius 21.6079
rwrist -3.35877
rhand -24.663 -26.3358
rfingers 7.12502
rthumb 1.83706 -56.3076
lclavicle -2.168e-014 -2.38542e-014
lhumerus -20.8079 -15.609 90.0572
lradius 45.3045
lwrist 13.2375
lhand -16.8008 -29.3197
lfingers 7.12502
lthumb 9.4275 0.449403
rfemur -40.8175 2.074 21.029
rtibia 45.0633
rfoot -9.01437 3.00728
rtoes -13.9554
lfemur 16.8368 9.01658 -18.812
ltibia 28.6477
lfoot 4.99357 4.60184
ltoes -17.8351
87
root 7.76671 15.8185 -14.5247 4.446 4.31901 0.740701
lowerback -4.22531 -2.48326 -4.35537
upperback -0.511643 -3.15538 2.15647
thorax 2.1986 -1.62483 4.47418
lowerneck -22.7208 -4.41851 -12.6917
upperneck 21.793 -5.60902 14.3188
head 11.6921 -1.83423 6.60898
rclavicle 2.81777e-014 -2.14687e-014
rhumerus -48.152 2.38613 -79.9981
rradius 21.5151
rwrist -2.06215
rhand -25.092 -28.5447
rfingers 7.12502
rthumb 1.42269 -58.5197
lclavicle 2.81777e-014 -2.14687e-014
lhumerus -21.4806 -15.7146 90.5438
lradius 44.5193
lwrist 12.9561
lhand -17.3254 -28.7838
lfingers 7.12502
lthumb 8.9213 1.00761
rfemur -39.5329 1.98851 22.0508
rtibia 45.0657
rfoot -10.0724 3.24112
rtoes -13.0308
lfemur 14.722 9.18994 -17.6281
ltibia 33.6296
lfoot 5.71431 5.15433
ltoes -14.7538
88
root 7.75331 15.843 -14.2964 4.3932 4.59785 -0.177251
lowerback -4.12176 -2.38838 -3.55622
upperback -0.688189 -3.07566 2.4973
thorax 1.92621 -1.57054 4.39157
lowerneck -22.1896 -4.48535 -12.7867
upperneck 21.7815 -5.69477 14.1817
head 11.5958 -1.91544 6.55028
rclavicle -6.5102e-015 2.78299e-015
rhumerus -47.2454 -0.195792 -77.6848
rradius 20.1909
rwrist -0.116028
rhand -25.8808 -26.1317
rfingers 7.12502
rthumb 0.660887 -56.1104
lclavicle -6.5102e-015 2.78299e-015
lhumerus -22.5993 -15.9605 91.3348
lradius 43.8851
lwrist 12.127
lhand -18.8109 -28.0755
lfingers 7.12502
lthumb 7.48768 1.77198
rfemur -38.481 1.88323 23.2474
rtibia 44.9065
rfoot -10.7408 3.22739
rtoes -12.6474
lfemur 12.3341 9.15043 -16.4738
ltibia 38.3296
lfoot 7.4934 5.92661
ltoes -7.39647
89
root 7.74328 15.8727 -14.0739 4.35778 4.90481 -1.19138
lowerback -4.10547 -2.42429 -2.59741
upperback -0.703939 -3.17177 2.80598
thorax 1.87659 -1.61191 4.16559
lowerneck -22.2082 -4.42152 -12.5063
upperneck 21.8802 -5.64698 13.9514
head 11.6109 -1.89622 6.42204
rclavicle 3.70236e-015 3.22031e-014
rhumerus -46.3678 -0.644536 -77.6999
rradius 19.9848
rwrist -0.928656
rhand -27.2015 -25.5513
rfingers 7.12502
rthumb -0.614694 -55.5302
lclavicle 3.70236e-015 3.22031e-014
lhumerus -23.5282 -15.6854 91.6745
lradius 43.3946
lwrist 11.7223
lhand -19.4192 -27.8994
lfingers 7.12502
lthumb 6.90053 1.96813
rfemur -37.3558 1.80978 24.5286
rtibia 44.4995
rfoot -11.2652 3.12628
rtoes -12.8985
lfemur 9.81299 9.05908 -15.3086
ltibia 42.9264
lfoot 7.33527 7.12979
ltoes -16.2982
90
root 7.73558 15.9153 -13.8588 4.21721 5.21846 -2.31396
lowerback -4.05631 -2.45629 -1.46311
upperback -0.499299 -3.27319 3.09387
thorax 2.02283 -1.66014 3.81539
lowerneck -22.9638 -4.39308 -12.1738
upperneck 22.0441 -5.62177 13.8315
head 11.8017 -1.84491 6.33527
rclavicle -8.01351e-015 5.96354e-015
rhumerus -45.0617 -1.3525 -77.6276
rradius 19.1982
rwrist -2.37017
rhand -30.1751 -21.4012
rfingers 7.12502
rthumb -3.48653 -51.3524
lclavicle -8.01351e-015 5.96354e-015
lhumerus -23.8103 -14.7337 91.6488
lradius 42.642
lwrist 11.5462
lhand -18.753 -27.9038
lfingers 7.12502
lthumb 7.54353 1.94166
rfemur -35.9839 1.7781 25.8527
rtibia 43.8639
rfoot -11.8925 3.10588
rtoes -12.5771
lfemur 7.38155 9.04824 -13.9937
ltibia 47.3535
lfoot 6.89529 7.90322
ltoes -21.9133
91
root 7.72521 15.965 -13.6532 4.15903 5.51703 -3.46628
lowerback -3.83808 -2.39275 -0.426023
upperback -0.529257 -3.23815 3.51082
thorax 1.834 -1.63389 3.67614
lowerneck -23.4331 -4.49906 -12.2355
upperneck 22.2486 -5.69475 13.7517
head 11.9823 -1.87745 6.31674
rclavicle -5.74239e-014 1.63003e-014
rhumerus -44.11 -2.11633 -77.2102
rradius 18.8469
rwrist -2.70622
rhand -31.736 -21.0839
rfingers 7.12502
rthumb -4.99384 -51.0051
lclavicle -5.74239e-014 1.63003e-014
lhumerus -24.1796 -13.9959 92.0022
lradius 41.4925
lwrist 11.5493
lhand -18.5256 -28.2101
lfingers 7.12502
lthumb 7.76309 1.62743
rfemur -34.6865 1.75232 27.2266
rtibia 43.0762
rfoot -12.3853 3.03963
rtoes -12.569
lfemur 4.80257 9.05747 -12.6587
ltibia 51.5335
lfoot 5.92407 8.66645
ltoes -21.4344
92
root 7.71491 16.011 -13.4453 4.29018 5.68782 -4.30611
lowerback -3.7595 -2.31281 0.237306
upperback -0.759757 -3.15454 3.84614
thorax 1.5305 -1.58465 3.66424
lowerneck -23.2929 -4.53533 -12.5523
upperneck 22.3212 -5.72285 13.999
head 12.0075 -1.89268 6.47057
rclavicle -2.14936e-014 1.11319e-014
rhumerus -43.5487 -2.54865 -76.9826
rradius 18.9499
rwrist -2.29322
rhand -31.4762 -23.0327
rfingers 7.12502
rthumb -4.74293 -52.9597
lclavicle -2.14936e-014 1.11319e-014
lhumerus -24.9032 -13.4408 92.495
lradius 40.2434
lwrist 11.4412
lhand -18.5643 -28.6166
lfingers 7.12502
lthumb 7.72572 1.22225
rfemur -33.5621 1.75562 28.296
rtibia 42.2589
rfoot -12.8145 2.98123
rtoes -12.6419
lfemur 2.10256 9.13626 -11.7847
ltibia 55.353
lfoot 5.67564 9.17288
ltoes -13.9948
93
root 7.70846 16.0528 -13.237 4.43967 5.70385 -4.79261
lowerback -3.86036 -2.19633 0.660056
upperback -0.889964 -3.01488 3.96545
thorax 1.42888 -1.51125 3.55688
lowerneck -22.9501 -4.49619 -12.7528
upperneck 22.1987 -5.72909 14.3806
head 11.9164 -1.87805 6.64966
rclavicle 4.20305e-014 -5.1684e-015
rhumerus -42.8986 -2.96016 -76.9846
rradius 18.9175
rwrist -1.9126
rhand -30.95 -22.7919
rfingers 7.12502
rthumb -4.23488 -52.7295
lclavicle 4.20305e-014 -5.1684e-015
lhumerus -25.5752 -12.8678 92.7826
lradius 39.0741
lwrist 11.0829
lhand -17.8117 -27.9492
lfingers 7.12502
lthumb 8.45205 1.86166
rfemur -32.4748 1.85091 28.9566
rtibia 41.5273
rfoot -13.271 2.96017
rtoes -12.3599
lfemur -0.459218 9.28059 -11.4036
ltibia 58.7277
lfoot 2.70086 9.85334
ltoes -20.0901
